HIERARCHY
ROOT joint_0
{
	OFFSET 0.000000 0.000000 0.000000
	CHANNELS 6 Xposition Yposition Zposition Zrotation Yrotation Xrotation 
	JOINT joint_1
	{
		OFFSET 11.612000 -0.419000 106.198000
		CHANNELS 3 Zrotation Yrotation Xrotation
		JOINT joint_2
		{
			OFFSET -1.708000 -1.022000 97.564090
			CHANNELS 3 Zrotation Yrotation Xrotation
			JOINT joint_3
			{
				OFFSET -4.121000 -1.538000 97.375000
				CHANNELS 3 Zrotation Yrotation Xrotation
				JOINT joint_4
				{
					OFFSET 5.442000 -2.123000 132.795900
					CHANNELS 3 Zrotation Yrotation Xrotation
					JOINT joint_5
					{
						OFFSET 21.935000 0.195000 82.975100
						CHANNELS 3 Zrotation Yrotation Xrotation
						End Site
						{
							OFFSET 0.000000 0.000000 0.000000
						}
					}
				}
				JOINT joint_6
				{
					OFFSET 4.262000 -30.048000 73.899900
					CHANNELS 3 Zrotation Yrotation Xrotation
					JOINT joint_7
					{
						OFFSET 9.731000 -136.810010 -21.963010
						CHANNELS 3 Zrotation Yrotation Xrotation
						JOINT joint_8
						{
							OFFSET 33.360000 -35.709000 -267.597900
							CHANNELS 3 Zrotation Yrotation Xrotation
							JOINT joint_9
							{
								OFFSET 36.156000 -29.759000 -240.558040
								CHANNELS 3 Zrotation Yrotation Xrotation
								End Site
								{
									OFFSET 0.000000 0.000000 0.000000
								}
							}
						}
					}
				}
				JOINT joint_10
				{
					OFFSET 2.027000 27.734000 74.914920
					CHANNELS 3 Zrotation Yrotation Xrotation
					JOINT joint_11
					{
						OFFSET -5.183000 136.784000 -23.604980
						CHANNELS 3 Zrotation Yrotation Xrotation
						JOINT joint_12
						{
							OFFSET 29.806000 37.229000 -267.809940
							CHANNELS 3 Zrotation Yrotation Xrotation
							JOINT joint_13
							{
								OFFSET 36.890000 46.524990 -237.772030
								CHANNELS 3 Zrotation Yrotation Xrotation
								End Site
								{
									OFFSET 0.000000 0.000000 0.000000
								}
							}
						}
					}
				}
			}
		}
	}
	JOINT joint_14
	{
		OFFSET -7.290000 -102.873990 -124.314940
		CHANNELS 3 Zrotation Yrotation Xrotation
		JOINT joint_15
		{
			OFFSET -15.466000 -19.909010 -438.533020
			CHANNELS 3 Zrotation Yrotation Xrotation
			JOINT joint_16
			{
				OFFSET -26.899000 -18.922000 -464.797000
				CHANNELS 3 Zrotation Yrotation Xrotation
				JOINT joint_17
				{
					OFFSET 179.329000 -12.011000 -84.174000
					CHANNELS 3 Zrotation Yrotation Xrotation
					End Site
					{
						OFFSET 0.000000 0.000000 0.000000
					}
				}
			}
		}
	}
	JOINT joint_18
	{
		OFFSET -6.225000 101.546000 -125.479980
		CHANNELS 3 Zrotation Yrotation Xrotation
		JOINT joint_19
		{
			OFFSET -13.973000 7.996000 -438.963010
			CHANNELS 3 Zrotation Yrotation Xrotation
			JOINT joint_20
			{
				OFFSET -44.294000 5.716000 -463.813970
				CHANNELS 3 Zrotation Yrotation Xrotation
				JOINT joint_21
				{
					OFFSET 178.505000 -4.689000 -85.139000
					CHANNELS 3 Zrotation Yrotation Xrotation
					End Site
					{
						OFFSET 0.000000 0.000000 0.000000
					}
				}
			}
		}
	}
}
MOTION
Frames: 16
Frame Time: 0.016667
-3304.632080 903.146729 1116.385010 12.331629 2.029881 0.784426 -1.234809 8.316494 3.692941 -1.041554 -1.533574 -0.894561 -0.883647 1.432212 0.518537 0.522149 -7.886712 -1.658300 0.000000 0.000000 0.000000 -5.860248 -10.811413 -2.386208 -33.126380 -5.569116 -12.445049 177.607494 -64.102702 -98.359844 0.000000 0.000000 0.000000 -1.042389 -3.081795 1.564663 6.964937 -1.190784 15.670877 169.045195 -82.359489 142.325459 0.000000 0.000000 0.000000 -4.452055 4.615090 1.654219 -4.097968 -0.196644 -0.686650 -3.682426 -8.425550 -2.267396 0.000000 0.000000 0.000000 3.627865 -1.200590 2.783543 3.855153 7.276446 0.525487 3.837036 -9.194683 1.550962 0.000000 0.000000 0.000000 
-3302.859375 902.495361 1114.963989 12.167150 1.625720 0.618609 -1.202168 8.810035 4.022157 -0.948900 -1.666284 -0.921514 -0.775469 1.548299 0.508555 0.507077 -7.708322 -1.620023 0.000000 0.000000 0.000000 -5.193435 -12.894882 -2.183251 -37.173811 -6.723405 -12.254009 177.886055 -57.188223 -95.691817 0.000000 0.000000 0.000000 -1.521035 -4.163584 1.481031 7.447571 -1.878389 15.428341 169.370379 -82.447609 141.993093 0.000000 0.000000 0.000000 -4.433743 4.968079 1.720354 -4.069139 0.225138 -0.465228 -3.606708 -8.811267 -2.256307 0.000000 0.000000 0.000000 3.498151 -2.961423 3.048826 3.847584 11.545669 0.715908 4.213635 -9.731966 1.695406 0.000000 0.000000 0.000000 
-3301.486572 902.016052 1113.651978 12.018419 1.185860 0.371161 -1.235759 9.332787 4.437696 -0.872855 -1.793233 -0.979880 -0.669821 1.649017 0.517568 0.483200 -7.530285 -1.543759 0.000000 0.000000 0.000000 -4.498361 -13.939958 -2.145690 -38.713842 -7.276625 -12.033135 177.868905 -54.514481 -95.279342 0.000000 0.000000 0.000000 -1.844552 -4.960866 1.560807 7.672122 -2.348356 14.985120 169.568129 -82.691588 142.273609 0.000000 0.000000 0.000000 -4.435528 5.333202 1.869755 -4.040365 0.665011 -0.257003 -3.533229 -9.155545 -2.243054 0.000000 0.000000 0.000000 3.231822 -4.847627 3.445524 3.727437 16.096272 0.798848 4.687197 -10.079034 1.877493 0.000000 0.000000 0.000000 
-3300.227295 901.841248 1112.583008 11.928567 0.758294 0.069984 -1.375544 9.711348 4.902688 -0.849596 -1.860998 -1.045835 -0.604103 1.696847 0.570069 0.443432 -7.313717 -1.395394 0.000000 0.000000 0.000000 -3.970086 -13.646098 -2.126353 -36.377396 -7.086752 -11.574607 176.367969 -59.954417 -96.195126 0.000000 0.000000 0.000000 -1.789075 -5.659576 1.649959 7.614379 -2.807222 14.273860 169.574839 -83.793095 142.795632 0.000000 0.000000 0.000000 -4.477355 5.732667 2.108708 -4.014961 1.003317 -0.119571 -3.477894 -9.390951 -2.230051 0.000000 0.000000 0.000000 2.811288 -6.811382 3.962317 3.457423 20.836724 0.707602 5.182365 -10.104351 2.065093 0.000000 0.000000 0.000000 
-3299.293457 901.867004 1111.671021 11.879071 0.309954 -0.340801 -1.615700 10.055530 5.497889 -0.856510 -1.892563 -1.153794 -0.551724 1.703991 0.652598 0.390469 -7.076423 -1.188882 0.000000 0.000000 0.000000 -3.469251 -11.943384 -2.260629 -30.107138 -6.273074 -11.063893 176.601814 -71.491844 -102.472069 0.000000 0.000000 0.000000 -1.459353 -6.112759 1.874258 7.257738 -3.123820 13.281759 169.405810 -85.340339 143.873309 0.000000 0.000000 0.000000 -4.557917 6.157036 2.478712 -3.987858 1.315802 -0.022441 -3.430101 -9.547939 -2.214535 0.000000 0.000000 0.000000 2.254205 -8.923694 4.675757 3.034214 25.921180 0.411375 5.706930 -9.725919 2.261571 0.000000 0.000000 0.000000 
-3298.322998 902.303589 1110.980957 11.786180 -0.139445 -0.743699 -1.863451 10.363658 6.090350 -0.864425 -1.918972 -1.299168 -0.499385 1.686880 0.738292 0.328960 -6.829643 -0.954065 0.000000 0.000000 0.000000 -3.137734 -10.474581 -2.254752 -24.351070 -5.668523 -10.626243 179.528341 -77.749551 -111.977919 0.000000 0.000000 0.000000 -1.078937 -6.519866 2.071684 6.879349 -3.446809 12.272680 169.227722 -87.020554 144.882253 0.000000 0.000000 0.000000 -4.633299 6.619086 2.841935 -3.932374 1.547832 0.007016 -3.367851 -9.606256 -2.186034 0.000000 0.000000 0.000000 1.638348 -10.782758 5.406738 2.488978 30.328543 -0.124546 5.999024 -9.174444 2.358259 0.000000 0.000000 0.000000 
-3296.979248 903.322205 1110.546021 11.672895 -0.549092 -0.988290 -2.075050 10.531060 6.486807 -0.891852 -1.933208 -1.441283 -0.480694 1.663471 0.827349 0.257007 -6.577513 -0.692793 0.000000 0.000000 0.000000 -3.022211 -9.697387 -1.918000 -20.663236 -5.445256 -10.350037 -178.255284 -80.458284 -119.018692 0.000000 0.000000 0.000000 -0.778247 -7.000639 2.063976 6.639746 -3.863714 11.461184 169.124629 -88.683686 145.405464 0.000000 0.000000 0.000000 -4.695352 7.131072 3.038587 -3.857000 1.612607 -0.051819 -3.302276 -9.567300 -2.150121 0.000000 0.000000 0.000000 0.963906 -12.214994 5.959023 1.825955 33.570839 -0.907931 5.767935 -8.989626 2.231233 0.000000 0.000000 0.000000 
-3295.406982 904.841980 1110.337036 11.596262 -0.912099 -1.101503 -2.286307 10.523737 6.712702 -0.962014 -1.906286 -1.569725 -0.517876 1.628263 0.929981 0.172375 -6.315171 -0.393598 0.000000 0.000000 0.000000 -3.089811 -9.119100 -1.356539 -17.718215 -5.334199 -10.153098 -176.450197 -82.286372 -124.996388 0.000000 0.000000 0.000000 -0.472936 -7.478325 1.909266 6.434907 -4.314942 10.753356 -10.963877 -89.561382 -34.311430 0.000000 0.000000 0.000000 -4.768457 7.673655 3.101455 -3.782110 1.530442 -0.181855 -3.249912 -9.450671 -2.115167 0.000000 0.000000 0.000000 0.222791 -13.434186 6.371553 1.061534 36.110701 -1.884163 5.065737 -9.212003 1.904516 0.000000 0.000000 0.000000 
-3293.978027 906.732239 1110.422974 11.406689 -1.244365 -1.155868 -2.438495 10.522371 6.808522 -1.025574 -1.880682 -1.650394 -0.565252 1.601260 0.999538 0.098951 -6.064690 -0.135924 0.000000 0.000000 0.000000 -3.182161 -8.803557 -0.829345 -15.464014 -5.337154 -9.889625 -175.087068 -83.878898 -129.812113 0.000000 0.000000 0.000000 -0.214420 -8.033234 1.780326 6.320831 -4.810886 10.109790 -10.978016 -87.740302 -34.271207 0.000000 0.000000 0.000000 -4.793441 8.132853 3.063777 -3.690996 1.491882 -0.302894 -3.178979 -9.321451 -2.071830 0.000000 0.000000 0.000000 -0.290528 -14.403536 6.605681 0.511777 37.702799 -2.676283 4.372218 -9.534053 1.592451 0.000000 0.000000 0.000000 
-3293.009766 908.910339 1110.943970 10.990342 -1.567496 -1.182316 -2.487703 10.675001 6.771473 -1.044661 -1.900423 -1.653898 -0.585667 1.609937 0.997140 0.054058 -5.846017 0.024617 0.000000 0.000000 0.000000 -3.165881 -8.777186 -0.512551 -13.800940 -5.463692 -9.461806 -174.116832 -85.537076 -133.575042 0.000000 0.000000 0.000000 -0.052179 -8.755104 1.798379 6.362496 -5.385838 9.537506 -10.861350 -85.832733 -34.554183 0.000000 0.000000 0.000000 -4.720312 8.429960 2.921628 -3.573951 1.637232 -0.349216 -3.069013 -9.226225 -2.014544 0.000000 0.000000 0.000000 -0.374473 -15.072419 6.589622 0.404177 38.104763 -2.977664 4.091095 -9.769640 1.469308 0.000000 0.000000 0.000000 
-3292.363525 911.420715 1111.873047 10.417291 -1.865651 -1.145250 -2.457112 10.888148 6.573592 -1.043908 -1.939867 -1.588797 -0.602479 1.647292 0.943616 0.027642 -5.648922 0.123962 0.000000 0.000000 0.000000 -3.096351 -8.920585 -0.318020 -12.460422 -5.675081 -8.938409 -173.357411 -87.287917 -136.768826 0.000000 0.000000 0.000000 0.025927 -9.610577 1.888942 6.535766 -6.036575 9.066154 -10.638242 -83.803633 -35.159406 0.000000 0.000000 0.000000 -4.572173 8.597343 2.658622 -3.444569 1.893792 -0.350389 -2.938675 -9.144342 -1.949889 0.000000 0.000000 0.000000 -0.161851 -15.481228 6.321867 0.616099 37.444981 -2.900513 4.077742 -10.026298 1.468476 0.000000 0.000000 0.000000 
-3291.701416 914.282166 1112.790039 9.743791 -2.101008 -1.087839 -2.381022 11.074988 6.318659 -1.046928 -1.976822 -1.506949 -0.631581 1.688831 0.882050 0.011723 -5.479679 0.192867 0.000000 0.000000 0.000000 -3.045652 -9.207569 -0.197042 -11.334984 -5.982839 -8.428849 -172.729645 -89.124543 -139.572254 0.000000 0.000000 0.000000 0.069623 -10.467598 1.999009 6.741427 -6.683255 8.609595 -10.378934 -81.802177 -35.814812 0.000000 0.000000 0.000000 -4.369215 8.657632 2.361182 -3.299674 2.195879 -0.362462 -2.790668 -9.079476 -1.878790 0.000000 0.000000 0.000000 0.195222 -15.665073 5.949985 0.988500 36.065798 -2.629382 4.159892 -10.189026 1.515939 0.000000 0.000000 0.000000 
-3290.854248 917.507202 1113.437988 8.976596 -2.232937 -1.030854 -2.265504 11.176350 6.065522 -1.064357 -1.987672 -1.437992 -0.682052 1.715636 0.838039 0.000886 -5.354390 0.252854 0.000000 0.000000 0.000000 -3.060887 -9.646079 -0.152137 -10.384310 -6.405472 -7.984075 7.796778 -88.896664 37.985584 0.000000 0.000000 0.000000 0.114524 -11.244709 2.121600 6.920399 -7.271101 8.095104 -10.123183 -79.961823 -36.328479 0.000000 0.000000 0.000000 -4.113192 8.588947 2.077595 -3.136260 2.520217 -0.423879 -2.624935 -9.034708 -1.801201 0.000000 0.000000 0.000000 0.621584 -15.632528 5.552469 1.443177 33.974317 -2.263153 4.214379 -10.211089 1.559664 0.000000 0.000000 0.000000 
-3289.949463 921.089478 1113.979980 8.072359 -2.286488 -0.972244 -2.090814 11.252201 5.796455 -1.078565 -1.999048 -1.372966 -0.735897 1.738929 0.795734 -0.001735 -5.271269 0.291948 0.000000 0.000000 0.000000 -3.110050 -10.226521 -0.197559 -9.588189 -6.933253 -7.562981 8.225266 -86.714589 35.879678 0.000000 0.000000 0.000000 0.140784 -11.997150 2.277957 7.112246 -7.832252 7.562647 -9.843468 -78.220762 -36.811847 0.000000 0.000000 0.000000 -3.792839 8.391854 1.790482 -2.945560 2.890768 -0.519532 -2.431002 -8.996646 -1.711549 0.000000 0.000000 0.000000 1.170091 -15.314867 5.087963 2.020543 30.950589 -1.750380 4.293391 -9.983985 1.626317 0.000000 0.000000 0.000000 
-3288.760254 925.019653 1114.307007 7.161431 -2.333999 -0.962237 -1.932071 11.307697 5.566250 -1.107299 -2.025930 -1.321121 -0.800122 1.759311 0.752071 0.003907 -5.177656 0.299933 0.000000 0.000000 0.000000 -3.185134 -10.852803 -0.193018 -8.833708 -7.507157 -7.204172 8.629668 -84.470190 33.821395 0.000000 0.000000 0.000000 0.153558 -12.724063 2.392132 7.299576 -8.371195 7.059346 -9.560551 -76.481315 -37.309443 0.000000 0.000000 0.000000 -3.462379 8.223866 1.542372 -2.729844 3.230814 -0.630885 -2.213745 -8.967150 -1.611516 0.000000 0.000000 0.000000 1.754575 -14.780467 4.636780 2.606092 27.985527 -1.194847 4.463373 -9.460950 1.738790 0.000000 0.000000 0.000000 
-3287.001221 929.351807 1114.234985 6.381372 -2.406490 -1.015144 -1.856869 11.264858 5.373253 -1.189262 -2.057213 -1.259377 -0.911082 1.786885 0.703636 0.020570 -5.021715 0.260828 0.000000 0.000000 0.000000 -3.295250 -11.474489 -0.039633 -8.048371 -8.100449 -6.941536 9.057816 -82.196665 31.630775 0.000000 0.000000 0.000000 0.164018 -13.442841 2.384822 7.486013 -8.900445 6.641250 -9.276220 -74.647013 -37.900278 0.000000 0.000000 0.000000 -3.164921 8.204749 1.339355 -2.505568 3.457375 -0.738865 -1.990520 -8.981136 -1.510822 0.000000 0.000000 0.000000 2.328819 -14.101510 4.213582 3.160852 25.893117 -0.630974 4.797214 -8.840970 1.921275 0.000000 0.000000 0.000000 
